<?xml version="1.0" encoding="UTF-8" standalone="no"?>
<!DOCTYPE svg PUBLIC "-//W3C//DTD SVG 1.1//EN" "http://www.w3.org/Graphics/SVG/1.1/DTD/svg11.dtd">
<svg width="100%" height="100%" viewBox="0 0 2598 699" version="1.1" xmlns="http://www.w3.org/2000/svg" xmlns:xlink="http://www.w3.org/1999/xlink" xml:space="preserve" xmlns:serif="http://www.serif.com/" style="fill-rule:evenodd;clip-rule:evenodd;stroke-linejoin:round;stroke-miterlimit:1.5;">
    <g transform="matrix(1,0,0,1,-55.6342,-36.9153)">
        <g transform="matrix(1,0,0,1,176.458,-199.917)">
            <g transform="matrix(0.470841,0,0,0.470841,-7402.45,-5328.24)">
                <rect x="15471.8" y="11826.1" width="1469.51" height="1469.51" style="fill:none;stroke:rgb(47,19,122);stroke-width:13.27px;"/>
                <rect x="15471.8" y="11826.1" width="1469.51" height="1469.51" style="fill:rgb(93,63,132);"/>
                <clipPath id="_clip1">
                    <rect x="15471.8" y="11826.1" width="1469.51" height="1469.51"/>
                </clipPath>
                <g clip-path="url(#_clip1)">
                    <g transform="matrix(0.183535,-1.24219e-17,1.24333e-17,0.183367,15655.6,12063.2)">
                        <path d="M4700,9C4692,14 4676,19 4666,19C4625,19 4532,76 4463,145C4384,222 4344,294 4330,384C4325,411 4316,454 4310,478C4298,527 4304,609 4325,679C4333,704 4344,749 4350,779C4356,809 4369,848 4380,864C4391,881 4400,911 4400,931C4400,951 4412,999 4426,1036C4484,1190 4500,1235 4500,1250C4500,1266 4414,1352 4345,1405C4316,1427 4304,1430 4278,1424C4231,1413 4046,1415 3975,1427C3942,1432 3884,1442 3846,1448C3809,1454 3773,1463 3766,1467C3737,1486 3686,1497 3666,1489C3603,1463 3322,1408 3213,1400C3110,1393 3082,1387 3038,1364C3009,1349 2978,1331 2970,1324C2938,1298 2810,1241 2761,1230C2732,1224 2679,1219 2642,1219C2565,1219 2446,1186 2330,1133C2257,1100 2113,1062 1977,1039C1895,1026 1564,1013 1527,1023C1491,1032 1470,1056 1470,1088C1470,1104 1463,1122 1455,1129C1444,1139 1442,1157 1446,1218C1457,1353 1476,1450 1499,1472C1517,1491 1523,1491 1561,1480C1602,1468 1605,1468 1623,1493C1639,1516 1649,1519 1700,1519C1733,1519 1770,1524 1784,1531C1808,1541 1815,1537 1890,1466C1934,1423 1976,1389 1983,1389C1990,1389 2007,1401 2021,1415C2034,1430 2095,1479 2155,1525C2216,1570 2294,1632 2330,1661C2530,1824 2677,1890 2880,1909C2943,1915 3004,1924 3015,1928C3026,1933 3074,1949 3122,1964C3171,1979 3233,2007 3261,2026C3354,2087 3425,2126 3486,2149C3609,2195 3700,2210 3738,2190C3747,2186 3774,2179 3798,2175C3838,2169 3841,2171 3859,2200C3870,2218 3883,2270 3890,2318C3896,2365 3907,2415 3913,2429C3919,2443 3927,2497 3931,2549C3941,2672 3953,2739 3980,2819C4003,2886 4003,2911 3981,3069C3963,3202 3972,3192 3872,3185C3824,3181 3755,3176 3717,3173C3655,3168 3648,3169 3630,3191C3614,3210 3611,3229 3612,3312C3613,3438 3626,3478 3674,3502C3694,3512 3710,3524 3710,3529C3710,3534 3693,3548 3673,3560C3652,3572 3606,3610 3570,3643C3534,3677 3462,3740 3410,3784C3260,3911 3213,3958 3158,4033C3130,4072 3096,4115 3084,4129C3072,4143 3019,4238 2966,4342C2897,4476 2870,4540 2870,4565C2870,4614 2812,4709 2760,4743C2738,4757 2717,4769 2713,4769C2708,4769 2698,4781 2689,4795C2680,4809 2653,4837 2627,4857C2602,4877 2557,4914 2527,4938L2472,4983L2367,4980C2265,4978 2261,4978 2192,5013C2112,5053 2090,5078 2090,5129C2088,5209 2029,5269 1950,5269C1931,5269 1899,5279 1880,5291C1802,5340 1755,5359 1713,5359C1688,5359 1659,5364 1647,5370C1581,5404 1359,5561 1320,5601C1295,5628 1267,5649 1259,5649C1251,5649 1215,5674 1180,5705C1144,5735 1105,5764 1094,5769C1082,5774 1058,5800 1040,5827C1006,5880 808,6058 725,6110C698,6127 666,6149 655,6159C644,6169 605.222,6182.82 581,6196C513.333,6232.83 338.617,6290.68 249,6380C158.72,6469.98 73.887,6658.65 39.322,6735.87C24.685,6768.57 41.611,6843.32 41.611,6843.32C41.611,6843.32 121,6903 325,6903C524,6904 555,6898 569,6859C574,6843 1004,6539 1022,6539C1042,6539 1019,6497 1022,6539L1025,6584L1113,6587L1200,6590L1218,6558C1246,6507 1280,6469 1300,6469C1323,6469 1367,6291 1381,6250C1389,6227 1402,6217 1453,6200C1487,6188 1523,6174 1532,6169C1542,6163 1554,6159 1559,6159C1564,6159 1592,6143 1622,6124C1651,6104 1686,6086 1700,6083C1714,6080 1766,6065 1815,6050C1865,6034 1934,6016 1970,6010C2005,6003 2054,5986 2078,5972L2121,5946L2248,5965C2420,5989 2548,5988 2695,5961C2816,5939 2878,5924 2915,5908C2926,5904 2985,5887 3045,5870C3106,5854 3200,5825 3255,5805C3310,5785 3414,5749 3485,5724C3557,5700 3633,5671 3655,5660C3677,5649 3699,5644 3703,5649C3708,5653 3709,5694 3706,5740C3692,5968 3682,6505 3692,6553C3709,6640 3713,6711 3702,6748C3696,6768 3690,6817 3688,6858L3685,6931L3719,6948C3746,6962 3759,6964 3791,6955C3819,6948 3846,6948 3888,6957C3920,6964 3987,6969 4037,6969L4128,6969L4134,6911C4152,6739 4160,6248 4149,5979C4143,5822 4138,5660 4137,5619L4135,5544L4180,5542C4316,5534 4419,5493 4600,5373C4658,5335 4719,5297 4735,5289C4793,5260 5184,4996 5224,4959C5262,4924 5270,4921 5345,4916C5439,4909 5509,4898 5605,4874C5644,4864 5704,4853 5740,4848C5834,4837 6036,4798 6100,4780C6119,4775 6160,4764 6190,4756C6220,4748 6281,4728 6325,4710C6371,4692 6408,4683 6413,4688C6418,4693 6418,4718 6411,4749C6405,4777 6400,4831 6400,4869C6400,4907 6395,4959 6388,4983C6374,5037 6387,5106 6432,5219C6449,5260 6464,5306 6467,5322C6470,5337 6476,5352 6481,5355C6486,5358 6490,5367 6490,5376C6490,5400 6521,5461 6548,5491C6572,5517 6572,5518 6555,5562C6541,5599 6540,5614 6550,5660C6556,5690 6564,5727 6567,5744C6570,5760 6581,5784 6592,5796C6610,5815 6611,5822 6601,5850C6593,5873 6593,5886 6601,5895C6608,5904 6608,5919 6601,5946C6588,5993 6587,6043 6599,6067C6618,6103 6633,6197 6635,6281C6635,6335 6641,6373 6649,6383C6670,6408 6654,6556 6629,6570C6617,6576 6610,6590 6610,6609C6610,6625 6605,6641 6600,6644C6594,6647 6590,6659 6590,6670C6590,6680 6586,6697 6581,6707C6540,6788 6519,6920 6536,6986C6545,7019 6635,7059 6702,7059C6761,7059 6929,7086 6945,7098C6950,7102 6982,7114 7015,7123C7048,7133 7091,7146 7110,7151C7129,7157 7155,7165 7168,7170C7181,7175 7208,7179 7230,7179C7251,7179 7272,7183 7275,7189C7283,7201 7637,7203 7644,7190C7647,7186 7663,7179 7679,7176C7697,7172 7711,7162 7715,7149C7718,7138 7726,7129 7731,7129C7746,7129 7742,7032 7726,7026C7719,7023 7703,7001 7691,6977C7662,6921 7626,6885 7570,6852C7545,6838 7513,6815 7499,6802C7485,6789 7458,6770 7439,6760C7420,6750 7391,6720 7373,6693C7355,6666 7319,6625 7293,6602C7256,6568 7248,6557 7258,6547C7282,6523 7266,6469 7234,6469C7227,6469 7208,6482 7192,6497C7175,6513 7157,6523 7152,6520C7147,6517 7133,6495 7121,6472C7105,6440 7100,6412 7100,6351L7100,6272L7148,6263L7195,6254L7194,6179C7193,6085 7178,6021 7145,5970C7119,5928 7115,5888 7128,5799C7134,5759 7138,5754 7165,5749C7194,5744 7195,5742 7192,5699C7188,5628 7189,5590 7197,5504L7205,5424L7245,5419C7285,5414 7285,5414 7293,5359C7303,5293 7296,5213 7274,5133C7265,5101 7253,5051 7248,5024C7243,4996 7235,4955 7230,4932C7224,4905 7224,4880 7231,4859C7237,4842 7239,4816 7235,4801C7231,4786 7224,4709 7219,4629C7214,4549 7206,4446 7200,4399C7194,4352 7186,4253 7181,4179C7167,3945 7117,3848 6974,3772C6873,3718 6770,3681 6705,3673C6678,3670 6637,3664 6615,3658C6593,3653 6431,3645 6256,3640C5965,3631 5898,3624 5929,3605C5946,3594 5943,3428 5925,3386C5911,3352 5875,3320 5836,3305C5826,3302 5795,3284 5768,3267L5719,3235L5726,3175C5729,3141 5736,3087 5741,3054C5746,3021 5750,2973 5750,2947C5750,2921 5755,2897 5760,2894C5766,2891 5770,2873 5770,2854C5770,2835 5774,2818 5779,2815C5784,2812 5791,2793 5795,2773C5798,2753 5805,2729 5810,2720C5839,2662 5868,2577 5899,2459C5916,2396 5897,1955 5876,1921C5872,1914 5867,1842 5866,1760C5863,1597 5859,1582 5779,1411C5728,1302 5664,1238 5550,1182C5444,1130 5407,1119 5343,1119L5292,1119L5288,1051C5285,1014 5280,976 5275,967C5270,954 5278,939 5305,912C5355,862 5365,846 5389,770C5426,655 5411,567 5356,584C5285,606 5290,612 5290,498C5290,392 5267,271 5236,210C5203,147 5088,65 4988,34C4959,25 4927,14 4918,8C4895,-4 4719,-4 4700,9Z" style="fill:white;fill-rule:nonzero;"/>
                    </g>
                </g>
            </g>
        </g>
        <g transform="matrix(1,0,0,1,176.458,-199.917)">
            <g transform="matrix(9.40553,0,0,9.40553,-8276.62,-5956.05)">
                <path d="M980.314,699.479C981.214,699.579 981.364,699.929 981.364,700.729L981.364,702.229C981.364,702.529 981.314,702.679 981.114,702.879L979.714,704.279C979.514,704.479 979.364,704.529 979.014,704.529L972.914,704.529C972.164,704.529 971.864,704.479 971.314,704.279L966.164,702.179L963.164,707.529L967.514,710.029C969.264,711.029 970.264,711.229 972.564,711.229L979.614,711.229C982.214,711.229 983.164,710.779 984.514,709.429L986.814,707.129C988.414,705.529 988.714,704.779 988.714,702.179L988.714,699.779C988.714,697.129 988.114,695.579 986.964,694.429C985.664,693.179 983.914,692.579 980.864,692.329L972.214,691.579C971.314,691.479 971.164,691.129 971.164,690.329L971.164,688.629C971.164,688.329 971.214,688.179 971.414,687.979L972.814,686.579C973.014,686.379 973.164,686.329 973.514,686.329L978.664,686.329C979.364,686.329 979.664,686.379 980.114,686.579L985.164,688.679L988.264,683.329L983.964,680.829C982.264,679.829 981.214,679.629 978.914,679.629L972.914,679.629C970.314,679.629 969.364,680.079 968.014,681.429L965.714,683.729C964.114,685.329 963.814,686.079 963.814,688.679L963.814,691.279C963.814,693.929 964.414,695.479 965.564,696.629C966.864,697.879 968.614,698.479 971.664,698.729L980.314,699.479Z" style="fill:none;fill-rule:nonzero;stroke:white;stroke-width:1.33px;stroke-miterlimit:2;"/>
                <path d="M980.314,699.479C981.214,699.579 981.364,699.929 981.364,700.729L981.364,702.229C981.364,702.529 981.314,702.679 981.114,702.879L979.714,704.279C979.514,704.479 979.364,704.529 979.014,704.529L972.914,704.529C972.164,704.529 971.864,704.479 971.314,704.279L966.164,702.179L963.164,707.529L967.514,710.029C969.264,711.029 970.264,711.229 972.564,711.229L979.614,711.229C982.214,711.229 983.164,710.779 984.514,709.429L986.814,707.129C988.414,705.529 988.714,704.779 988.714,702.179L988.714,699.779C988.714,697.129 988.114,695.579 986.964,694.429C985.664,693.179 983.914,692.579 980.864,692.329L972.214,691.579C971.314,691.479 971.164,691.129 971.164,690.329L971.164,688.629C971.164,688.329 971.214,688.179 971.414,687.979L972.814,686.579C973.014,686.379 973.164,686.329 973.514,686.329L978.664,686.329C979.364,686.329 979.664,686.379 980.114,686.579L985.164,688.679L988.264,683.329L983.964,680.829C982.264,679.829 981.214,679.629 978.914,679.629L972.914,679.629C970.314,679.629 969.364,680.079 968.014,681.429L965.714,683.729C964.114,685.329 963.814,686.079 963.814,688.679L963.814,691.279C963.814,693.929 964.414,695.479 965.564,696.629C966.864,697.879 968.614,698.479 971.664,698.729L980.314,699.479Z" style="fill-rule:nonzero;"/>
                <path d="M1016.66,694.329C1016.66,691.729 1016.36,690.979 1014.76,689.379L1013.56,688.179C1012.21,686.829 1011.26,686.379 1008.66,686.379L1001.46,686.379C998.864,686.379 997.914,686.829 996.564,688.179L995.364,689.379C993.764,690.979 993.464,691.679 993.464,694.329L993.464,703.279C993.464,705.929 993.764,706.629 995.364,708.229L996.564,709.429C997.914,710.779 998.864,711.229 1001.46,711.229L1008.06,711.229C1010.26,711.229 1011.31,710.979 1013.06,710.029L1016.76,708.029L1014.41,703.279L1009.41,705.029C1008.96,705.179 1008.66,705.229 1008.21,705.229L1002.01,705.229C1001.66,705.229 1001.56,705.179 1001.36,704.979L1000.66,704.279C1000.46,704.079 1000.41,703.979 1000.41,703.679L1000.41,701.729L1014.11,701.729C1015.96,701.729 1016.66,701.029 1016.66,699.379L1016.66,694.329ZM1000.41,693.929C1000.41,693.629 1000.46,693.529 1000.66,693.329L1001.36,692.629C1001.56,692.429 1001.66,692.379 1002.01,692.379L1008.21,692.379C1008.56,692.379 1008.66,692.429 1008.86,692.629L1009.56,693.329C1009.76,693.529 1009.81,693.629 1009.81,693.929L1009.81,696.479L1000.41,696.479L1000.41,693.929Z" style="fill:none;fill-rule:nonzero;stroke:white;stroke-width:1.33px;stroke-miterlimit:2;"/>
                <path d="M1016.66,694.329C1016.66,691.729 1016.36,690.979 1014.76,689.379L1013.56,688.179C1012.21,686.829 1011.26,686.379 1008.66,686.379L1001.46,686.379C998.864,686.379 997.914,686.829 996.564,688.179L995.364,689.379C993.764,690.979 993.464,691.679 993.464,694.329L993.464,703.279C993.464,705.929 993.764,706.629 995.364,708.229L996.564,709.429C997.914,710.779 998.864,711.229 1001.46,711.229L1008.06,711.229C1010.26,711.229 1011.31,710.979 1013.06,710.029L1016.76,708.029L1014.41,703.279L1009.41,705.029C1008.96,705.179 1008.66,705.229 1008.21,705.229L1002.01,705.229C1001.66,705.229 1001.56,705.179 1001.36,704.979L1000.66,704.279C1000.46,704.079 1000.41,703.979 1000.41,703.679L1000.41,701.729L1014.11,701.729C1015.96,701.729 1016.66,701.029 1016.66,699.379L1016.66,694.329ZM1000.41,693.929C1000.41,693.629 1000.46,693.529 1000.66,693.329L1001.36,692.629C1001.56,692.429 1001.66,692.379 1002.01,692.379L1008.21,692.379C1008.56,692.379 1008.66,692.429 1008.86,692.629L1009.56,693.329C1009.76,693.529 1009.81,693.629 1009.81,693.929L1009.81,696.479L1000.41,696.479L1000.41,693.929Z" style="fill-rule:nonzero;"/>
                <path d="M1045.61,690.879C1045.61,689.129 1045.16,688.329 1043.41,687.679L1041.51,686.979C1040.31,686.529 1039.56,686.379 1038.11,686.379L1030.01,686.379C1027.41,686.379 1026.46,686.829 1025.11,688.179L1023.91,689.379C1022.31,690.979 1022.01,691.679 1022.01,694.329L1022.01,703.279C1022.01,705.929 1022.31,706.629 1023.91,708.229L1025.11,709.429C1026.46,710.779 1027.41,711.229 1030.01,711.229L1035.26,711.229C1036.46,711.229 1037.16,711.079 1038.36,710.679L1038.66,710.579L1038.66,721.229L1045.61,721.229L1045.61,690.879ZM1038.66,703.879C1038.66,704.079 1038.56,704.179 1038.41,704.229L1036.81,704.729C1036.66,704.779 1036.41,704.829 1036.21,704.829L1030.56,704.829C1030.21,704.829 1030.11,704.779 1029.91,704.579L1029.21,703.879C1029.01,703.679 1028.96,703.579 1028.96,703.279L1028.96,694.329C1028.96,694.029 1029.01,693.929 1029.21,693.729L1029.91,693.029C1030.11,692.829 1030.21,692.779 1030.56,692.779L1037.46,692.779C1037.66,692.779 1037.86,692.829 1038.01,692.879L1038.41,693.029C1038.56,693.079 1038.66,693.179 1038.66,693.329L1038.66,703.879Z" style="fill:none;fill-rule:nonzero;stroke:white;stroke-width:1.33px;stroke-miterlimit:2;"/>
                <path d="M1045.61,690.879C1045.61,689.129 1045.16,688.329 1043.41,687.679L1041.51,686.979C1040.31,686.529 1039.56,686.379 1038.11,686.379L1030.01,686.379C1027.41,686.379 1026.46,686.829 1025.11,688.179L1023.91,689.379C1022.31,690.979 1022.01,691.679 1022.01,694.329L1022.01,703.279C1022.01,705.929 1022.31,706.629 1023.91,708.229L1025.11,709.429C1026.46,710.779 1027.41,711.229 1030.01,711.229L1035.26,711.229C1036.46,711.229 1037.16,711.079 1038.36,710.679L1038.66,710.579L1038.66,721.229L1045.61,721.229L1045.61,690.879ZM1038.66,703.879C1038.66,704.079 1038.56,704.179 1038.41,704.229L1036.81,704.729C1036.66,704.779 1036.41,704.829 1036.21,704.829L1030.56,704.829C1030.21,704.829 1030.11,704.779 1029.91,704.579L1029.21,703.879C1029.01,703.679 1028.96,703.579 1028.96,703.279L1028.96,694.329C1028.96,694.029 1029.01,693.929 1029.21,693.729L1029.91,693.029C1030.11,692.829 1030.21,692.779 1030.56,692.779L1037.46,692.779C1037.66,692.779 1037.86,692.829 1038.01,692.879L1038.41,693.029C1038.56,693.079 1038.66,693.179 1038.66,693.329L1038.66,703.879Z" style="fill-rule:nonzero;"/>
                <path d="M1053.91,679.929C1052.51,679.929 1051.86,680.529 1051.86,681.829L1051.86,710.929L1059.26,710.929L1059.26,698.629L1071.51,698.629L1071.51,692.129L1059.26,692.129L1059.26,686.429L1074.06,686.429L1074.06,679.929L1053.91,679.929Z" style="fill:none;fill-rule:nonzero;stroke:white;stroke-width:1.33px;stroke-miterlimit:2;"/>
                <path d="M1053.91,679.929C1052.51,679.929 1051.86,680.529 1051.86,681.829L1051.86,710.929L1059.26,710.929L1059.26,698.629L1071.51,698.629L1071.51,692.129L1059.26,692.129L1059.26,686.429L1074.06,686.429L1074.06,679.929L1053.91,679.929Z" style="fill-rule:nonzero;"/>
                <path d="M1093.16,704.279C1093.16,704.429 1093.06,704.529 1092.91,704.579L1092.51,704.729C1092.36,704.779 1092.16,704.829 1091.96,704.829L1085.36,704.829C1085.01,704.829 1084.91,704.779 1084.71,704.579L1084.01,703.879C1083.81,703.679 1083.76,703.579 1083.76,703.279L1083.76,686.679L1076.81,686.679L1076.81,703.279C1076.81,705.929 1077.11,706.629 1078.71,708.229L1079.91,709.429C1081.26,710.779 1082.21,711.229 1084.81,711.229L1092.61,711.229C1094.06,711.229 1094.81,711.079 1096.01,710.629L1097.91,709.929C1099.66,709.279 1100.11,708.479 1100.11,706.729L1100.11,686.679L1093.16,686.679L1093.16,704.279Z" style="fill:none;fill-rule:nonzero;stroke:white;stroke-width:1.33px;stroke-miterlimit:2;"/>
                <path d="M1093.16,704.279C1093.16,704.429 1093.06,704.529 1092.91,704.579L1092.51,704.729C1092.36,704.779 1092.16,704.829 1091.96,704.829L1085.36,704.829C1085.01,704.829 1084.91,704.779 1084.71,704.579L1084.01,703.879C1083.81,703.679 1083.76,703.579 1083.76,703.279L1083.76,686.679L1076.81,686.679L1076.81,703.279C1076.81,705.929 1077.11,706.629 1078.71,708.229L1079.91,709.429C1081.26,710.779 1082.21,711.229 1084.81,711.229L1092.61,711.229C1094.06,711.229 1094.81,711.079 1096.01,710.629L1097.91,709.929C1099.66,709.279 1100.11,708.479 1100.11,706.729L1100.11,686.679L1093.16,686.679L1093.16,704.279Z" style="fill-rule:nonzero;"/>
                <path d="M1142.61,688.229C1142.61,685.629 1142.36,684.879 1140.76,683.279L1138.91,681.429C1137.56,680.079 1136.61,679.629 1134.01,679.629L1129.46,679.629C1126.91,679.629 1126.06,679.829 1124.36,680.729L1120.46,682.829L1123.01,688.229L1127.91,686.379C1128.46,686.179 1128.76,686.129 1129.31,686.129L1133.56,686.129C1133.91,686.129 1134.06,686.179 1134.26,686.379L1135.16,687.279C1135.36,687.479 1135.41,687.629 1135.41,687.929L1135.41,690.779C1135.41,691.679 1135.21,691.879 1134.31,692.179L1126.36,694.729C1122.21,696.079 1121.21,697.729 1121.21,701.829L1121.21,708.179C1121.21,709.879 1122.01,710.929 1123.86,710.929L1142.56,710.929L1142.56,704.629L1128.36,704.629L1128.36,702.079C1128.36,701.279 1128.56,700.879 1129.46,700.579L1137.46,698.029C1141.61,696.679 1142.61,695.029 1142.61,690.929L1142.61,688.229Z" style="fill:none;fill-rule:nonzero;stroke:white;stroke-width:1.33px;stroke-miterlimit:2;"/>
                <path d="M1142.61,688.229C1142.61,685.629 1142.36,684.879 1140.76,683.279L1138.91,681.429C1137.56,680.079 1136.61,679.629 1134.01,679.629L1129.46,679.629C1126.91,679.629 1126.06,679.829 1124.36,680.729L1120.46,682.829L1123.01,688.229L1127.91,686.379C1128.46,686.179 1128.76,686.129 1129.31,686.129L1133.56,686.129C1133.91,686.129 1134.06,686.179 1134.26,686.379L1135.16,687.279C1135.36,687.479 1135.41,687.629 1135.41,687.929L1135.41,690.779C1135.41,691.679 1135.21,691.879 1134.31,692.179L1126.36,694.729C1122.21,696.079 1121.21,697.729 1121.21,701.829L1121.21,708.179C1121.21,709.879 1122.01,710.929 1123.86,710.929L1142.56,710.929L1142.56,704.629L1128.36,704.629L1128.36,702.079C1128.36,701.279 1128.56,700.879 1129.46,700.579L1137.46,698.029C1141.61,696.679 1142.61,695.029 1142.61,690.929L1142.61,688.229Z" style="fill-rule:nonzero;"/>
            </g>
        </g>
    </g>
</svg>
